<?xml version="1.0" encoding="UTF-8"?>
<svg id="_Слой_1" data-name="Слой 1" xmlns="http://www.w3.org/2000/svg" viewBox="0 0 1466.28 1026.78">
  <defs>
    <style>
      .cls-1 {
        fill: #fff;
      }

      .cls-2 {
        fill: #020202;
      }
    </style>
  </defs>
  <rect class="cls-1" width="1466.28" height="1026.78"/>
  <g>
    <path class="cls-2" d="m1465.63,1026.2h-601.02c1.72-1.93,3.49-3.82,5.14-5.81,45.09-54.51,79.86-115.1,105.94-180.73,24.67-62.08,42.39-125.93,47.48-192.81,3.98-52.29.31-103.96-15.11-154.37-22.11-72.3-62.96-131.33-124.69-175.66-21.78-15.64-45.24-27.93-70.66-35.96-37.05-11.7-75.18-15.13-113.9-11.83-1.74.15-3.5.02-5.25.02,1.25-1.92,2.6-3.02,4.14-3.55,13.24-4.53,26.21-10.45,39.83-13.17,71.29-14.21,139.23-1.62,203.91,29.33,67.34,32.22,120.47,81.54,163.51,141.94,60.48,84.89,96.31,179.38,108.33,282.83,7.74,66.66,9.56,133.41,1.02,200.16-1.59,12.4-2.86,24.99-6.05,37.01-4.65,17.47-10.82,34.54-16.54,51.72-1.57,4.72-1.07,7.46,4.58,7.74,3.87.19,7.74.65,11.58,1.21,5.16.75,7.49-1.26,9.16-6.39,17.26-53,25.36-107.38,25.51-163.04.22-85.48-6.62-169.66-38.75-250.36-26.06-65.44-56.01-128.52-98.22-185.28-35.15-47.25-76.71-87.75-127.34-118.12-45-27-93.73-43.79-146.29-48.14-36.87-3.05-73.43.06-109.08,9.75-54.43,14.79-98.19,46.44-134.88,88.55-1.49,1.71-3.03,3.39-4.54,5.09-.58-.31-1.16-.62-1.74-.93,2.01-5.3,3.71-10.75,6.1-15.88,18.4-39.49,47-70.54,81.31-96.57,35.38-26.84,74.28-46.91,117.5-57.86,19.21-4.87,38.49-10.03,58.07-12.71,77.64-10.63,152.98,1.42,226.94,25.05,72.69,23.22,137.58,60.64,196.71,108.38,43.22,34.89,83.56,72.79,119.01,115.73,27.7,33.56,51.08,70.06,73.31,107.32,3.01,5.05,4.77,11.67,4.78,17.56.25,166.59.21,333.18.21,499.77Z"/>
    <path class="cls-2" d="m837.41,1026.2H.65c0-213.64,0-427.28,0-640.92,2.57,4.66,5.29,9.25,7.68,14,21.01,41.85,47.12,80.28,77.29,116.06,46.98,55.72,104.41,98.51,167.28,134.22,37.91,21.53,77.42,39.92,118.62,54.7,47.79,17.14,96.63,29.47,147.17,34.09,50.77,4.64,100.92.04,149.94-14.41,79.56-23.46,142.71-69.39,187.51-139.35,32.39-50.58,42.52-106.8,38.69-166.05-.18-2.8-.02-5.62-.02-8.43.65-.14,1.29-.28,1.94-.42,2.93,7.3,6.34,14.44,8.72,21.91,16.23,50.87,14.5,102.19,2.17,153.37-15.89,65.93-48.9,122.65-95.11,171.91-48.97,52.21-107.54,90.82-172.21,120.58-72.33,33.29-148.76,49.46-227.96,54.12-84.72,4.99-161.62-18.6-232.97-62.91-48.36-30.04-93.36-64.47-135.17-103.1-1.22-1.13-3.51-2.23-4.87-1.84-3.63,1.04-7.02,2.91-11.02,4.67,1.42,1.81,2.19,3.05,3.2,4.06,38.57,38.26,80.07,72.94,127.13,100.3,25.51,14.83,51.69,28.65,78.31,41.36,37.19,17.75,77.09,27.38,117.96,30.09,37.19,2.47,74.53.77,111.69-4.78,75.6-11.3,147.59-33.53,215.18-69.2,19.79-10.45,38.78-22.6,57.35-35.14,56.49-38.12,104.7-84.53,139.45-143.74,41.03-69.91,56.84-144.86,43.11-225.21-2.57-15.03-6.19-30.09-11.29-44.43-16.83-47.26-45.93-86.11-84.03-118.43-1.67-1.42-3.25-2.95-4.87-4.43,1.92-.86,3.21-.82,4.31-.34,8.5,3.7,17.31,6.85,25.37,11.34,46.95,26.19,81.66,64.64,108.14,110.68,48.7,84.69,59.19,176.04,44.71,271.13-10.38,68.19-32.58,132.52-64.81,193.6-14.54,27.55-30.7,54.04-49.36,78.78-16.3,21.62-34.9,41.51-52.48,62.17Z"/>
    <path class="cls-2" d="m.65.73h254.37c-2.24,8.27-4.25,15.73-6.27,23.18-11.91,44.07-15.51,88.86-9.76,134.09,11.33,89,30.54,175.98,69.9,257.39,30.08,62.23,69.83,117.02,125.23,159.34,48.51,37.06,102.67,60.49,163.73,67.4,62.52,7.07,121.8-3.99,177.64-32.25,31.92-16.15,58.5-39.59,81.74-66.75,1.26-1.47,2.53-2.94,3.85-4.36.25-.27.77-.3,2.5-.92-1.3,4.05-2.12,7.42-3.43,10.58-17.02,41.02-45.68,72.88-80.02,99.94-44.36,34.96-94.89,56.57-149.92,68.71-36.95,8.15-73.91,12.69-111.75,8.55-51.24-5.6-100.21-19.8-148.39-37.47-75.43-27.65-145.2-65.34-206.7-117.29-54.23-45.82-99.85-99.14-133.03-162.13-11.39-21.63-18.98-45.25-28.34-67.95-.31-.76-.9-1.42-1.35-2.13,0-112.65,0-225.29,0-337.94Z"/>
    <path class="cls-2" d="m548.48,467.22c-3.06-7.7-6.56-15.25-9.1-23.11-11.41-35.31-13.33-71.56-9.43-108.19,6.57-61.63,29.07-117.31,63.98-168.22,18.77-27.38,44.2-47.64,71.13-66.23,9.57-6.61,18.9-13.98,29.37-18.76,12.97-5.92,27.06-9.39,40.59-14.14,61.72-21.65,125.79-27.49,190.6-29.02,123.28-2.9,246.04,4.35,368.26,19.96,55.21,7.05,110.04,16.99,165.07,25.44,5.06.78,6.64,2.71,6.64,7.88-.1,125.38-.02,250.76.03,376.13,0,1.9,0,3.81,0,6.67-1.38-.95-2.19-1.22-2.54-1.79-34.59-55.98-76.43-105.94-124.6-150.72-36.59-34.02-74.72-66.12-118.06-91.25-36.48-21.15-75.43-37.19-114.75-52.24-12.28-4.7-24.51-9.67-37.11-13.32-86.84-25.22-174.86-36.67-264.67-19.04-20.61,4.05-40.93,10.63-60.65,17.99-50.1,18.71-92.19,49.13-126.63,90.09-20.25,24.09-37.88,49.72-49.03,79.46-15.19,40.52-20.26,82.34-17.08,125.33.16,2.1.22,4.22.33,6.32-.78.25-1.56.49-2.34.74Z"/>
    <path class="cls-2" d="m510.32.74c-23.1,26.38-39.94,54.5-52.43,84.51-10.87,26.13-18.91,53.75-25.18,81.4-11.63,51.3-13.67,103.57-7.07,155.73,10.33,81.59,42.62,152.99,103.34,209.83,34.46,32.26,73.46,57.16,120.14,68.43,31.74,7.67,63.8,10.5,96.35,7.91,2.15-.17,4.3-.31,6.45-.38.3-.01.61.42,2.05,1.49-6.85,2.93-12.92,5.96-19.27,8.18-33.4,11.64-67.39,20-103.2,18.51-40.88-1.71-79.83-11.43-116.83-28.55-97.62-45.17-161.69-122.06-204.46-218.45-26.26-59.17-42.84-121.08-48.76-185.68-3.31-36.05-1.82-71.99,2.76-107.82,3.81-29.81,10.83-58.92,20.18-87.5,1.77-5.4,4.23-7.79,10.48-7.77,69.06.26,138.12.16,207.18.16,2.07,0,4.15,0,8.29,0Z"/>
    <path class="cls-2" d="m622.51,583.23c-10.79-5.1-22.02-9.43-32.28-15.42-43.34-25.33-76.01-61.33-101.54-104.05-39.71-66.45-55.16-138.96-52.99-215.73,1.55-54.71,12.14-107.56,33.92-157.88,13.28-30.67,31.18-58.61,52.48-84.37,2.95-3.57,6.32-5.13,11.13-5.13,308.7.1,617.41.09,926.11.09,1.71,0,3.43,0,5.64,0v74.86c-3.92-.62-7.62-1.15-11.31-1.79-54.87-9.43-109.5-20.69-164.66-27.96-123.55-16.27-247.52-28.07-372.39-26.84-68.73.68-135.43,11.46-198.8,38.97-14.62,6.35-28.93,13.61-42.76,21.54-60.31,34.56-100.93,86.39-128.52,149.09-19.84,45.08-29.29,92.37-27.57,141.74,2.93,83.93,36.56,152.88,100.87,206.88,1.42,1.19,3.24,1.92,4.87,2.86l-2.21,3.14Z"/>
  </g>
</svg>