<svg width="20" height="31" viewBox="0 0 20 31" fill="none" xmlns="http://www.w3.org/2000/svg">
<path d="M15 20.0129C17.7614 20.0129 20 17.7729 20 15.0097C20 12.2466 17.7614 10.0066 15 10.0066C12.2386 10.0066 10 12.2466 10 15.0097C10 17.7729 12.2386 20.0129 15 20.0129Z" fill="#00BCFF"/>
<path d="M10 0H15C17.7589 0 20 2.24254 20 5.00316C20 7.76378 17.7589 10.0063 15 10.0063H10V0Z" fill="#FF7361"/>
<path d="M5 0H10V10.0063H5C2.24112 10.0063 0 7.76378 0 5.00316C0 2.24254 2.24112 0 5 0Z" fill="#FF4D12"/>
<path d="M5 10.0066H10V20.0129H5C2.24112 20.0129 0 17.7704 0 15.0097C0 12.2491 2.24112 10.0066 5 10.0066Z" fill="#B659FF"/>
<path d="M5 20.0129H10V25.0161C10 27.7767 7.75888 30.0193 5 30.0193C2.24112 30.0193 0 27.7767 0 25.0161C0 22.2555 2.24112 20.0129 5 20.0129Z" fill="#00CF7F"/>
</svg>
