<?xml version="1.0" encoding="UTF-8"?>
<svg id="_Слой_1" data-name="Слой 1" xmlns="http://www.w3.org/2000/svg" viewBox="0 0 256 256">
  <defs>
    <style>
      .cls-1 {
        fill: #ff7361;
      }

      .cls-2 {
        fill: #b659ff;
      }

      .cls-3 {
        fill: #00cf7f;
      }

      .cls-4 {
        fill: #00bcff;
      }

      .cls-5 {
        fill: #242424;
      }

      .cls-6 {
        fill: #ff4d12;
      }
    </style>
  </defs>
  <rect class="cls-5" width="256" height="256" rx="40" ry="40"/>
  <g>
    <circle class="cls-4" cx="159.25" cy="128.25" r="26.75"/>
    <path class="cls-1" d="m132.5,48h26.75c14.76,0,26.75,11.99,26.75,26.75h0c0,14.76-11.99,26.75-26.75,26.75h-26.75v-53.5h0Z"/>
    <path class="cls-6" d="m105.75,48h26.75v53.5h-26.75c-14.76,0-26.75-11.99-26.75-26.75h0c0-14.76,11.99-26.75,26.75-26.75Z"/>
    <path class="cls-2" d="m105.75,101.5h26.75v53.5h-26.75c-14.76,0-26.75-11.99-26.75-26.75h0c0-14.76,11.99-26.75,26.75-26.75Z"/>
    <path class="cls-3" d="m105.75,155h26.75v26.75c0,14.76-11.99,26.75-26.75,26.75h0c-14.76,0-26.75-11.99-26.75-26.75h0c0-14.76,11.99-26.75,26.75-26.75Z"/>
  </g>
</svg>