<?xml version="1.0" encoding="UTF-8"?>
<svg id="_Слой_1" data-name="Слой 1" xmlns="http://www.w3.org/2000/svg" viewBox="0 0 256 256">
  <defs>
    <style>
      .cls-1 {
        fill: #ee3c2d;
      }
    </style>
  </defs>
  <path class="cls-1" d="m224.98,255.65H31c-.47-.15-.93-.35-1.41-.44-14.54-2.72-23.94-11.2-28.34-25.26C.71,228.22.41,226.43,0,224.66,0,160.01,0,95.37,0,30.72c.17-.71.39-1.42.51-2.14C3.4,12.08,17.76-.23,34.58-.24c62.31-.06,124.62-.07,186.93,0,18.89.02,34.4,15.5,34.43,34.4.09,62.38.07,124.76,0,187.14-.02,15.19-10.35,28.61-24.93,32.87-1.98.58-4.02.99-6.03,1.48Zm-82.12-90.91c4.23,4.52,4.88,10.3,4.79,16.33-.1,6.08-.09,12.16-.09,18.24,0,4.08,2.27,5.73,6.18,4.55,1.19-.36,2.37-.79,3.53-1.24,42.95-16.54,62.62-64.88,43.2-106.18-17.79-37.84-62.91-55.61-102.61-39.37-30.25,12.37-47.45,35.61-49.59,68.37-1.78,27.23,9.33,49.39,30.75,66.28,6.85,5.4,14.52,9.38,22.81,12.14,3.14,1.04,5.96-.09,6.09-2.71.24-4.62.07-9.26.07-13.92-2.52.24-4.75.57-6.99.66-9.41.37-17.12-3.73-20.44-12.42-1.66-4.35-4.43-7.94-8.42-10.58-1.21-.8-1.99-2.26-2.96-3.42,1.7-.34,3.39-.69,5.09-1.02.07-.01.16.04.24.06,5,1.07,8.23,4.39,10.93,8.48,5.02,7.59,13.06,9.97,21.39,6.39.56-.24,1.25-.65,1.47-1.16,1.39-3.3,2.66-6.64,3.96-9.95-.92-.14-2.3-.37-3.69-.58-17.88-2.7-27.96-11.87-30.85-28.49-1.88-10.79-.99-21.11,6.64-29.88.42-.48.48-1.55.29-2.22-1.67-5.71-1.25-11.33.36-16.98.63-2.2,1.74-2.86,3.95-2.6,6.22.73,11.58,3.54,16.74,6.79,1.62,1.02,3.01,1.26,4.85.82,10.76-2.6,21.63-2.85,32.43-.47,3.47.76,6.21.55,9.24-1.48,4.43-2.97,9.33-5.1,14.78-5.64,1.91-.19,3.29.15,3.55,2.35.48,3.94,1.91,8.04,1.24,11.77-.91,5.05.41,8.66,2.99,12.88,5.84,9.54,4.74,20.01,1.9,30.25-2.71,9.8-9.12,16.56-18.71,19.93-4.84,1.7-9.92,2.69-15.11,4.06Z"/>
</svg>