<svg width="95" height="95" viewBox="0 0 95 95" fill="none" xmlns="http://www.w3.org/2000/svg">
<rect x="0.5" y="0.5" width="94" height="94" rx="14.5" fill="white" stroke="#CBD2DD"/>
<path d="M27.2914 71.0518L22.5472 18.5H73.406L68.6617 71.0518L47.9766 77.0142L27.2914 71.0518Z" fill="white" stroke="#CBD2DD"/>
<path d="M39.2559 42.6211H62.6019L61.0509 62.1419L47.9766 65.7311L34.9052 62.1427L34.2265 52.6406H39.9014L40.2414 57.7403L40.2661 58.1121L40.6295 58.1946L47.8658 59.8385L47.989 59.8665L48.1107 59.8326L55.347 57.8176L55.6796 57.725L55.7108 57.3812L56.453 49.2171L56.5026 48.6719H55.9551H33.7764L32.1052 29.6328H63.5906L63.2751 35.3125H38.8922H38.3625L38.393 35.8413L38.7567 42.1499L38.7839 42.6211H39.2559Z" stroke="#CBD2DD"/>
</svg>
