<?xml version="1.0" encoding="UTF-8"?>
<svg id="_Слой_1" data-name="Слой 1" xmlns="http://www.w3.org/2000/svg" viewBox="0 0 256 256">
  <defs>
    <style>
      .cls-1 {
        fill: #fff;
      }

      .cls-2 {
        fill: #f7e01d;
      }
    </style>
  </defs>
  <rect class="cls-2" y="0" width="256" height="256" rx="40" ry="40"/>
  <polygon class="cls-1" points="57.7 48 197.7 48 184.7 192 127.7 208.43 70.7 192 57.7 48"/>
  <polygon class="cls-2" points="107.56 76.5 120.92 76.5 120.92 178 86.91 170.85 85.5 146.91 98.17 146.91 99.11 160.05 108.03 161.93 107.56 76.5"/>
  <polygon class="cls-2" points="133.96 76.5 176.57 76.5 175.15 89.17 146.88 89.17 146.99 121.56 172.53 121.56 168.11 170.38 133.96 178 133.85 164.28 155.91 160.05 158.72 134.23 133.85 133.92 133.96 76.5"/>
</svg>