<?xml version="1.0" encoding="UTF-8"?>
<svg id="_Слой_1" data-name="Слой 1" xmlns="http://www.w3.org/2000/svg" viewBox="0 0 254.74 43.19">
  <defs>
    <style>
      .cls-1 {
        fill: #fff;
      }
    </style>
  </defs>
  <path class="cls-1" d="m.17,40.86v-9.32c1.69,1.42,3.52,2.48,5.5,3.19s3.98,1.06,6,1.06c1.18,0,2.22-.11,3.1-.32s1.62-.51,2.21-.89,1.03-.83,1.33-1.34.44-1.07.44-1.67c0-.82-.23-1.54-.7-2.18s-1.1-1.23-1.91-1.78-1.76-1.07-2.87-1.57-2.3-1.02-3.58-1.54c-3.26-1.36-5.69-3.02-7.3-4.98S0,15.18,0,12.41c0-2.17.44-4.04,1.31-5.61s2.06-2.85,3.57-3.86,3.25-1.75,5.23-2.23,4.08-.71,6.29-.71,4.1.13,5.78.39,3.23.66,4.65,1.21v8.71c-.7-.49-1.46-.91-2.29-1.28s-1.67-.67-2.55-.92-1.74-.42-2.61-.54-1.68-.17-2.46-.17c-1.07,0-2.04.1-2.91.31s-1.61.49-2.21.86-1.07.81-1.4,1.33-.5,1.09-.5,1.73c0,.7.18,1.33.55,1.88s.89,1.08,1.57,1.57,1.5.98,2.48,1.46,2.07.97,3.29,1.47c1.67.7,3.17,1.44,4.5,2.23s2.47,1.67,3.42,2.66,1.68,2.12,2.18,3.39.76,2.75.76,4.44c0,2.33-.44,4.29-1.33,5.87s-2.08,2.86-3.6,3.84-3.28,1.68-5.29,2.11-4.13.64-6.36.64-4.47-.19-6.54-.58-3.86-.97-5.37-1.75Z"/>
  <path class="cls-1" d="m61.42,30.17h-19.45c.31,4.33,3.04,6.49,8.18,6.49,3.28,0,6.16-.78,8.65-2.33v6.64c-2.76,1.48-6.34,2.21-10.75,2.21-4.81,0-8.55-1.33-11.21-4s-3.99-6.39-3.99-11.17,1.44-8.87,4.31-11.77,6.41-4.34,10.6-4.34,7.71,1.29,10.09,3.87,3.57,6.09,3.57,10.51v3.87Zm-8.53-5.65c0-4.27-1.73-6.41-5.18-6.41-1.48,0-2.75.61-3.83,1.83s-1.73,2.75-1.97,4.57h10.98Z"/>
  <path class="cls-1" d="m114.25,42.46h-9.17v-17.01c0-4.33-1.59-6.49-4.78-6.49-1.51,0-2.75.65-3.7,1.95s-1.43,2.92-1.43,4.86v16.69h-9.2v-17.18c0-4.21-1.56-6.32-4.69-6.32-1.57,0-2.83.62-3.77,1.86s-1.41,2.93-1.41,5.07v16.57h-9.2V12.64h9.2v4.66h.12c.95-1.59,2.29-2.89,4-3.89s3.6-1.5,5.64-1.5c4.21,0,7.1,1.85,8.65,5.56,2.27-3.71,5.61-5.56,10.02-5.56,6.48,0,9.73,4,9.73,12v18.55Z"/>
  <path class="cls-1" d="m148.32,30.17h-19.45c.31,4.33,3.04,6.49,8.18,6.49,3.28,0,6.16-.78,8.65-2.33v6.64c-2.76,1.48-6.34,2.21-10.75,2.21-4.81,0-8.55-1.33-11.21-4s-3.99-6.39-3.99-11.17,1.44-8.87,4.31-11.77,6.41-4.34,10.6-4.34,7.71,1.29,10.09,3.87,3.57,6.09,3.57,10.51v3.87Zm-8.53-5.65c0-4.27-1.73-6.41-5.18-6.41-1.48,0-2.75.61-3.83,1.83s-1.73,2.75-1.97,4.57h10.98Z"/>
  <path class="cls-1" d="m182.6,42.46h-9.17v-16.57c0-4.62-1.65-6.93-4.95-6.93-1.59,0-2.9.61-3.93,1.83s-1.54,2.78-1.54,4.66v17.01h-9.2V12.64h9.2v4.72h.12c2.19-3.63,5.39-5.45,9.58-5.45,6.6,0,9.9,4.1,9.9,12.29v18.26Z"/>
  <path class="cls-1" d="m204.09,43.19c-4.97,0-8.88-1.39-11.72-4.18s-4.27-6.57-4.27-11.34,1.48-8.79,4.43-11.58,6.94-4.18,11.97-4.18,8.83,1.39,11.65,4.18,4.22,6.47,4.22,11.05c0,4.95-1.45,8.86-4.35,11.74s-6.88,4.31-11.93,4.31Zm.23-24.23c-2.17,0-3.86.75-5.07,2.24s-1.81,3.61-1.81,6.35c0,5.73,2.31,8.59,6.93,8.59s6.61-2.94,6.61-8.82c0-5.57-2.22-8.36-6.67-8.36Z"/>
  <path class="cls-1" d="m254.74,12.64l-11.1,29.82h-10.48l-10.57-29.82h9.84l5.18,18.38c.58,2.08.92,3.84,1.02,5.3h.12c.14-1.38.5-3.09,1.08-5.13l5.3-18.55h9.61Z"/>
</svg>