<svg width="34" height="31" viewBox="0 0 34 31" fill="none" xmlns="http://www.w3.org/2000/svg">
<g clip-path="url(#clip0_100_130)">
<path d="M17 18.0176C18.6736 18.0176 20.0304 16.6712 20.0304 15.0103C20.0304 13.3494 18.6736 12.0029 17 12.0029C15.3263 12.0029 13.9695 13.3494 13.9695 15.0103C13.9695 16.6712 15.3263 18.0176 17 18.0176Z" fill="#61DAFB"/>
<path d="M17 21.1716C25.9806 21.1716 33.2609 18.413 33.2609 15.0102C33.2609 11.6074 25.9806 8.84888 17 8.84888C8.01937 8.84888 0.739136 11.6074 0.739136 15.0102C0.739136 18.413 8.01937 21.1716 17 21.1716Z" stroke="#61DAFB"/>
<path d="M11.6261 18.0832C16.119 25.7994 22.1691 30.6762 25.1392 28.976C28.1093 27.2757 26.8747 19.6422 22.3817 11.926C17.8887 4.20979 11.8387 -0.667073 8.86863 1.03319C5.89853 2.73346 7.13308 10.367 11.6261 18.0832Z" stroke="#61DAFB"/>
<path d="M11.6231 11.9295C7.1328 19.6477 5.9 27.2837 8.86957 28.9851C11.8391 30.6865 17.8866 25.809 22.3769 18.0909C26.8672 10.3728 28.1 2.7367 25.1304 1.03529C22.1609 -0.666113 16.1134 4.21141 11.6231 11.9295Z" stroke="#61DAFB"/>
</g>
<defs>
<clipPath id="clip0_100_130">
<rect width="34" height="30.0189" fill="white"/>
</clipPath>
</defs>
</svg>
