<svg width="32" height="30" viewBox="0 0 32 30" fill="none" xmlns="http://www.w3.org/2000/svg">
<g clip-path="url(#clip0_100_124)">
<path d="M22.1727 20.9475C23.3535 20.8268 24.2493 19.8218 24.2086 18.6156C24.1679 17.4095 23.1498 16.4446 21.9282 16.4446H21.8469C20.5843 16.4849 19.6072 17.5301 19.6479 18.7764C19.6886 19.3795 19.9329 19.9021 20.2994 20.2639C18.9148 22.9576 16.7973 24.9276 13.6211 26.5759C11.4629 27.7016 9.22325 28.1037 6.98363 27.8224C5.15113 27.5811 3.72588 26.7771 2.82988 25.4502C1.52688 23.4803 1.40475 21.3494 2.50424 19.2187C3.278 17.6909 4.4995 16.5652 5.27326 16.0023C5.11038 15.4797 4.866 14.5953 4.74387 13.9521C-1.16075 18.1734 -0.549873 23.8824 1.24187 26.5759C2.58563 28.5862 5.314 29.8326 8.32737 29.8326C9.14175 29.8326 9.95612 29.7521 10.7706 29.5512C15.983 28.546 19.9331 25.4904 22.1727 20.9475ZM29.3396 15.9622C26.2447 12.384 21.684 10.4141 16.4717 10.4141H15.8202C15.4536 9.69041 14.6799 9.20788 13.8248 9.20788H13.7432C12.481 9.24812 11.5037 10.2934 11.5444 11.5398C11.5851 12.7459 12.6031 13.7108 13.8248 13.7108H13.9062C14.802 13.6705 15.5758 13.1077 15.9014 12.3438H16.6345C19.7294 12.3438 22.6612 13.2282 25.3083 14.9571C27.3443 16.2838 28.8102 18.0127 29.6246 20.1032C30.3169 21.7917 30.2761 23.4401 29.5432 24.8473C28.4029 26.978 26.4891 28.144 23.9644 28.144C22.3355 28.144 20.7881 27.6614 19.9736 27.2997C19.5258 27.7016 18.7113 28.3449 18.1412 28.7471C19.8922 29.551 21.684 29.9933 23.3943 29.9933C27.3036 29.9933 30.1947 27.8625 31.2942 25.7318C32.4751 23.3999 32.3936 19.3795 29.3396 15.9622ZM8.65312 21.6307C8.69388 22.8369 9.71187 23.8018 10.9335 23.8018H11.015C12.2774 23.7617 13.2547 22.7162 13.2138 21.47C13.1732 20.2638 12.1551 19.299 10.9335 19.299H10.8521C10.7706 19.299 10.6484 19.299 10.5671 19.3392C8.8975 16.6053 8.20525 13.6303 8.44963 10.4139C8.61238 8.00171 9.42687 5.91107 10.8521 4.18225C12.033 2.6947 14.3133 1.97105 15.8609 1.93094C20.1773 1.85048 22.0096 7.15736 22.1318 9.28823C22.6612 9.4088 23.5571 9.69028 24.1679 9.89131C23.6792 3.37838 19.6072 0.0012207 15.698 0.0012207C12.033 0.0012207 8.65312 2.61448 7.30925 6.47404C5.43612 11.6201 6.65775 16.5652 8.93813 20.465C8.73462 20.7463 8.61238 21.1886 8.65312 21.6309V21.6307Z" fill="#764ABC"/>
</g>
<defs>
<clipPath id="clip0_100_124">
<rect width="32" height="30" fill="white"/>
</clipPath>
</defs>
</svg>
