<?xml version="1.0" encoding="UTF-8"?>
<svg id="_Слой_1" data-name="Слой 1" xmlns="http://www.w3.org/2000/svg" viewBox="0 0 256 256">
  <defs>
    <style>
      .cls-1 {
        fill: #fff;
      }
    </style>
  </defs>
  <path class="cls-1" d="m188.23,139.41c3.13.06,5.47-1.96,5.59-4.83.12-2.73-1.87-4.78-5-5.13-4.76-.54-7.32-3.11-7.81-7.86-.32-3.07-2.44-5.11-5.17-4.99-2.82.13-4.84,2.5-4.8,5.63.13,9.03,8.1,17.01,17.19,17.19Zm-19.67-45.55c.04-3.18-1.68-5.31-4.48-5.56-2.73-.25-4.86,1.48-5.42,4.4-1.07,5.66-1.92,6.51-7.52,7.58-2.92.56-4.74,2.73-4.47,5.36.27,2.73,2.36,4.5,5.32,4.51,8.78.05,16.45-7.49,16.56-16.29Zm-6.55,57.83c-5.94.31-10.75,2.76-14.19,7.66-1.66,2.36-1.2,5.28.94,6.92,2.14,1.64,5.14,1.39,6.9-.89,1.82-2.35,4.08-3.51,6.99-3.79,2.96-.29,4.87-2.46,4.74-5.1-.13-2.77-2.42-4.81-5.39-4.79Zm61.95-28.67c-2.67.02-4.89,2.23-4.94,4.89-.05,2.76,2.25,5.09,5.01,5.07,2.76-.02,5.04-2.39,4.95-5.14-.09-2.66-2.36-4.84-5.02-4.82Z"/>
  <path d="m0,48c2.8-3.88,4.32-4.25,8.82-2.12,5.86,2.77,11.7,5.58,17.56,8.33,2.1.98,3.64,2.31,3.71,4.83.07,2.51-1.37,3.96-3.42,5.05-1.24.66-2.43,1.42-3.91,2.29.66.48,1.13.89,1.65,1.2,3.67,2.11,7.39,4.15,11.04,6.32,2.83,1.68,3.64,4.47,2.21,7-1.41,2.5-4.3,3.24-7.13,1.65-6.82-3.82-13.62-7.66-20.37-11.61-3.73-2.19-3.64-6.57.06-8.89,1.24-.78,2.51-1.5,4.13-2.46-3.57-1.7-6.86-3.07-9.94-4.81C2.76,53.83,1.46,52.28,0,51c0-1,0-2,0-3Z"/>
  <path d="m256,51c-1.54,1.31-2.92,2.88-4.64,3.87-2.87,1.65-5.96,2.93-8.95,4.38-.13.06-.2.25-.42.54,1.35.8,2.72,1.54,4.01,2.39,3.4,2.24,3.51,6.56.02,8.63-6.93,4.12-13.96,8.07-21.02,11.98-2.51,1.39-5.37.42-6.68-1.93-1.34-2.42-.69-5.18,1.83-6.71,3.55-2.16,7.21-4.14,10.81-6.21.7-.4,1.37-.85,2.37-1.48-1.72-1.03-3.2-1.88-4.65-2.78-3.92-2.45-3.84-7.09.27-9.12,6.48-3.2,13.02-6.29,19.58-9.33,3.13-1.45,4.97-.69,7.47,2.77v3Z"/>
  <path d="m56.5,0c1.97,1.88,4.01,3.69,5.89,5.66,3.63,3.79,7.13,7.68,10.75,11.48,1.56,1.63,2.4,3.44,1.7,5.65-.75,2.35-2.65,3.27-4.95,3.58-1.48.2-2.96.43-4.86.71.78,1.02,1.39,1.84,2.02,2.65,2.52,3.2,5.14,6.34,7.54,9.63,1.64,2.25,1.12,5.05-.94,6.69-2.01,1.61-5.03,1.52-6.75-.58-5.22-6.37-10.38-12.79-15.37-19.34-2.29-3-.54-6.85,3.2-7.66,1.52-.33,3.07-.53,5.14-.87-2.64-2.84-4.98-5.36-7.33-7.87C48.79,5.71,49.07,2.97,53.5,0,54.5,0,55.5,0,56.5,0Z"/>
  <path d="m202.5,0c4.43,2.97,4.7,5.73.98,9.72-2.32,2.49-4.63,4.98-7.28,7.82,1.87.34,3.37.57,4.85.88,4.16.86,5.74,4.77,3.13,8.15-4.83,6.25-9.77,12.43-14.75,18.57-1.91,2.35-4.97,2.63-7.11.89-2.18-1.77-2.52-4.66-.64-7.12,2.97-3.88,6.06-7.68,9.34-11.81-2.2-.35-4.07-.56-5.89-.96-4.1-.91-5.67-5.12-2.91-8.21,4.94-5.52,10.05-10.88,15.13-16.27.61-.65,1.42-1.1,2.14-1.65,1,0,2,0,3,0Z"/>
  <path d="m256,198.5c-2.29,3.88-4.35,4.51-8.45,2.57-4.81-2.28-9.58-4.64-14.41-6.85-2.18-1-3.93-2.26-4.08-4.84-.15-2.6,1.43-4.12,3.55-5.24.57-.3,1.09-.68,1.95-1.24-3.11-1.78-5.96-3.41-8.8-5.04-3.36-1.93-4.46-4.65-2.97-7.35,1.56-2.82,4.46-3.31,8.01-1.3,5.14,2.91,10.27,5.83,15.39,8.77,4.78,2.74,4.81,6.83.11,9.83-.4.26-.76.58-1.17.89,3.63,2.42,8.3,2.93,10.89,6.8v3Z"/>
  <path d="m0,195.5c1.66-1.29,3.23-2.72,5.01-3.81,1.83-1.12,3.87-1.9,6.1-2.96-.95-.61-1.71-1.07-2.44-1.57-3.12-2.15-3.32-6.42-.12-8.35,5.98-3.61,12.08-7.01,18.21-10.35,2.4-1.31,5.18-.27,6.45,2.02,1.29,2.32.71,5.06-1.67,6.56-3.16,1.99-6.45,3.77-10.11,5.88,1.1.67,1.97,1.17,2.82,1.72,3.75,2.42,3.68,6.99-.29,8.99-5.49,2.76-11.06,5.38-16.65,7.93-3.13,1.43-5.23.45-7.31-3.07,0-1,0-2,0-3Z"/>
  <path d="m190.5,256c-4.57-4.79-9.27-9.47-13.66-14.42-2.39-2.7-.89-6.68,2.59-7.75.78-.24,1.61-.35,2.83-.6-2-2.55-3.91-4.91-5.73-7.33-1.4-1.85-1.51-3.87-.25-5.81,1.21-1.87,3.11-2.67,5.19-2.03,1.25.38,2.5,1.33,3.35,2.35,3.26,3.89,6.37,7.89,9.51,11.87,3.93,4.98,2.97,8.25-3.21,10.15,1.3,1.42,2.51,2.75,3.73,4.09,3.49,3.81,3.07,6.79-1.34,9.47h-3Z"/>
  <path d="m62.5,256c-4.42-2.68-4.84-5.67-1.34-9.46,1.22-1.33,2.44-2.66,3.8-4.14-1.22-.4-2.2-.57-3.04-1.01-2.8-1.46-3.43-4.98-1.32-7.7,3.52-4.53,7.11-9.01,10.71-13.47,2.1-2.61,5.15-3.09,7.42-1.25,2.23,1.8,2.45,4.69.48,7.32-1.69,2.25-3.48,4.42-5.43,6.88,1.12.26,1.97.4,2.79.65,3.47,1.07,4.98,5.06,2.59,7.75-4.39,4.95-9.09,9.63-13.66,14.43h-3Z"/>
  <path d="m54.29,90.16c-1.56-8.51-.17-16.28,4.98-23.12,5.73-7.62,13.48-11.41,23-11.5,1.3-.01,2.2-.07,2.96-1.51,8.74-16.46,29.42-18.92,41.81-5.06.27.3.55.58.97,1.03,3.46-4.25,7.62-7.32,12.76-8.9,11.62-3.58,24.01,1.59,29.75,12.4.58,1.09.91,2.06,2.62,2.09,18.65.25,30.94,14.31,28.82,32.86-.06.49-.12.98-.21,1.68.74.31,1.48.62,2.23.92,6.39,2.58,11.75,6.56,16.1,11.9,2.17,2.66,2.08,5.64-.16,7.55-2.22,1.9-5.25,1.5-7.45-1.12-5.83-6.96-13.23-10.71-22.31-11.14-.99-.05-2.03-.14-2.94-.48-2.15-.82-3.3-3.19-2.84-5.52.47-2.39,2.33-4.08,5.03-3.91,2.19.13,2.61-.77,2.81-2.63.84-7.67-3.61-15.42-10.81-18.6-7.38-3.26-16.17-1.25-21.35,4.88-.54.64-1.01,1.33-1.58,1.94-1.89,2.02-4.68,2.31-6.75.73-2.08-1.59-2.85-4.59-1.08-6.65,2.53-2.93,5.51-5.47,8.36-8.11.71-.66,1.67-1.05,2.51-1.56-2.42-5.44-8.53-8.83-14.77-8.26-6.22.57-11.72,5.2-13.22,11.26-.36,1.44-.52,2.96-.53,4.44-.03,18.25-.03,36.49-.02,54.74,0,5.03,2.12,7.37,7.2,8.08,3.07.43,4.98,2.56,4.79,5.36-.18,2.81-2.34,4.65-5.48,4.58-1.07-.02-2.15-.2-3.21-.4-1.05-.2-2.07-.52-3.18-.8-.05.43-.12.76-.12,1.08,0,17.66-.09,35.33.06,52.99.05,5.89,3.04,10.35,8.3,12.99,5.27,2.65,10.52,2.21,15.38-1.14,6.83-4.7,8.36-13.45,3.63-20.2-1.68-2.4-1.41-5.21.66-6.96,2.14-1.8,5.1-1.56,7.11.77,4.23,4.91,5.5,10.76,4.78,17.03-.23,2.03.36,2.58,2.21,2.84,8.84,1.23,16.19-1.48,21.68-8.48,5.1-6.5,6-13.84,3.38-21.61-3.67.39-7.11.94-10.58,1.07-3.87.14-6.35-3.29-5.04-6.7.75-1.96,2.26-3.1,4.39-3.16,9.83-.27,17.83-4.16,24.05-11.82,1.73-2.13,4.72-2.25,6.75-.67,2.13,1.67,2.78,4.8.85,6.87-2.98,3.21-6.3,6.13-9.63,8.99-1.06.91-1.6,1.41-1.12,2.98,3.77,12.34,1.49,23.51-7.48,32.81-8.82,9.15-19.72,11.84-32.08,8.9-.8-.19-2.12.18-2.66.78-11.14,12.41-27.51,12.52-38.9.19-.21-.23-.46-.43-.85-.79-3.42,4.3-7.6,7.41-12.8,8.83-10.18,2.78-18.94.21-26.04-7.58-1.28-1.41-2.24-1.82-4.17-1.37-12.18,2.88-22.87-.11-31.48-9.17-8.77-9.23-10.97-20.24-7.37-32.41.39-1.31.6-2.1-.82-3.07-12.98-8.87-19.44-21.25-17.95-36.9,1.55-16.36,10.62-27.59,25.89-33.76.3-.12.59-.27,1.13-.51Zm1.51,76.46c-2.61,7.78-1.74,15.11,3.37,21.62,5.49,6.99,12.84,9.7,21.67,8.48,1.83-.25,2.47-.78,2.22-2.83-.73-6.09.5-11.78,4.44-16.66,2.1-2.61,4.94-3.05,7.23-1.32,2.37,1.79,2.39,4.6.65,7.54-1.19,2.01-2.2,4.38-2.4,6.66-.71,8.2,5.76,15.39,13.9,15.86,8.47.49,15.96-5.93,16.04-14.32.18-17.82.06-35.65.06-53.48,0-.24-.09-.48-.16-.83-.58.15-1.13.33-1.69.43-1.47.27-2.94.65-4.42.71-3.22.14-5.5-1.84-5.64-4.7-.13-2.7,1.89-4.83,4.97-5.23,4.7-.61,6.91-3.08,6.95-7.79.02-3,0-6,0-9,0-15.58.05-31.16-.03-46.73-.04-7.38-5.17-13.31-12.47-14.79-6.4-1.29-13.32,2.14-16.04,8.02.4.25.8.53,1.22.77,3.92,2.2,7.22,5.08,9.69,8.84,1.51,2.3.98,5.11-1.08,6.71-2.06,1.6-4.87,1.33-6.75-.67-.63-.67-1.14-1.43-1.74-2.13-5.1-5.93-13.7-7.91-20.94-4.82-7.14,3.05-11.75,10.49-11.16,17.9.17,2.13.28,3.76,3.33,3.5,2.74-.24,4.68,2.14,4.72,4.78.04,2.63-1.8,4.65-4.6,4.99-1.07.13-2.16.15-3.24.27-11.35,1.35-19.63,7.2-24.28,17.57-4.59,10.22-3.44,20.22,3.03,29.35,5.65,7.97,13.63,11.99,23.38,12.43,2.23.1,4.12.68,5.18,2.81,1.72,3.44-.78,7.29-4.85,7.14-3.46-.13-6.9-.7-10.56-1.09Z"/>
  <path d="m188.23,139.41c-9.09-.18-17.06-8.15-17.19-17.19-.04-3.13,1.98-5.5,4.8-5.63,2.73-.12,4.85,1.92,5.17,4.99.5,4.75,3.05,7.32,7.81,7.86,3.13.36,5.12,2.4,5,5.13-.12,2.87-2.47,4.89-5.59,4.83Z"/>
  <path d="m168.56,93.85c-.11,8.79-7.79,16.34-16.56,16.29-2.96-.02-5.05-1.79-5.32-4.51-.26-2.63,1.55-4.8,4.47-5.36,5.6-1.07,6.44-1.92,7.52-7.58.55-2.91,2.68-4.64,5.42-4.4,2.8.25,4.52,2.38,4.48,5.56Z"/>
  <path d="m162,151.68c2.97-.01,5.25,2.02,5.39,4.79.12,2.64-1.79,4.81-4.74,5.1-2.91.29-5.17,1.44-6.99,3.79-1.76,2.28-4.76,2.53-6.9.89-2.14-1.64-2.59-4.56-.94-6.92,3.44-4.9,8.25-7.35,14.19-7.66Z"/>
  <path d="m223.96,123.02c2.66-.02,4.93,2.16,5.02,4.82.09,2.75-2.19,5.12-4.95,5.14-2.76.02-5.06-2.31-5.01-5.07.05-2.67,2.27-4.87,4.94-4.89Z"/>
  <path d="m67.59,139.41c-2.99,0-5.25-1.99-5.42-4.76-.16-2.72,1.85-4.85,4.93-5.2,4.93-.56,7.34-3.02,7.9-8.04.32-2.87,2.46-4.89,5.09-4.82,2.74.08,4.83,2.34,4.88,5.3.17,9.08-8.21,17.53-17.37,17.52Z"/>
  <path d="m87.44,93.87c-.04-3.18,1.66-5.31,4.46-5.57,2.9-.27,5.02,1.61,5.5,4.87.68,4.64,2.3,6.28,6.95,7.02,3.3.52,5.25,2.65,4.98,5.43-.29,2.97-2.56,4.66-6.06,4.5-8.55-.39-15.71-7.74-15.83-16.24Z"/>
  <path d="m93.96,151.68c5.95.25,10.77,2.68,14.26,7.53,1.77,2.45,1.32,5.44-.91,7.1-2.16,1.61-5.09,1.3-6.89-1-1.83-2.34-4.12-3.46-7.02-3.74-2.97-.29-4.76-2.43-4.6-5.18.15-2.72,2.28-4.66,5.17-4.71Z"/>
</svg>