<?xml version="1.0" encoding="UTF-8"?>
<svg id="_Слой_1" data-name="Слой 1" xmlns="http://www.w3.org/2000/svg" viewBox="0 0 256 256">
  <defs>
    <style>
      .cls-1 {
        fill: #fff;
      }

      .cls-2 {
        fill: #039be5;
      }
    </style>
  </defs>
  <circle class="cls-2" cx="128" cy="128" r="128"/>
  <path class="cls-1" d="m110.46,174.8c.5-6.12,1.04-12.44,1.53-18.76.2-2.55.05-5.1.44-7.66.25-1.68.75-2.88,2.01-4.02,18.63-16.77,37.21-33.58,55.81-50.38.37-.33.78-.64,1.1-1.02.6-.71,1.99-1.29,1.32-2.36-.73-1.18-2.1-.67-3.17-.21-.98.43-1.91,1-2.83,1.57-23.23,14.62-46.47,29.23-69.67,43.91-1.65,1.04-3.04,1.19-4.86.6-9.17-2.95-18.38-5.78-27.58-8.65-.32-.1-.63-.2-.95-.32-2.34-.86-5.24-1.47-5.37-4.46-.13-2.91,2.53-4.19,4.84-5.1,10.34-4.11,20.74-8.09,31.13-12.1,30.69-11.85,61.4-23.67,92.07-35.58,2.3-.89,4.57-.82,6.86-.71,2.09.1,3.78,2.76,3.87,5.42.15,4.11-.87,8.05-1.7,12.01-2.57,12.26-5.13,24.53-7.85,36.77-2.16,9.74-4.28,19.49-6.31,29.25-1.76,8.49-3.84,16.93-5.25,25.49-.03.16-.1.32-.14.48-1.66,7.52-7.17,8.16-12.32,4.43-9.84-7.13-19.6-14.36-29.33-21.64-1.42-1.06-2.18-1.04-3.45.24-4.52,4.54-9.2,8.94-13.82,13.38-.6.58-1.2,1.16-1.87,1.66-1.15.87-2.58,1.79-3.88,1.28-1.42-.56-.18-2.21-.63-3.54Z"/>
</svg>