<?xml version="1.0" encoding="UTF-8"?>
<svg id="_Слой_1" data-name="Слой 1" xmlns="http://www.w3.org/2000/svg" viewBox="0 0 256 256">
  <path d="m119.47,15.49c0-2.4-.04-4.79,0-7.19.1-4.97,3.75-8.67,8.53-8.71,4.91-.04,8.64,3.7,8.7,8.8.06,4.97.04,9.94,0,14.91,0,1.47.4,2.25,2.06,2.42,19.87,1.98,37.59,9.33,53.18,21.76,1.8,1.44,2.72,1.12,4.11-.36,3.05-3.22,6.25-6.3,9.4-9.43,2.19-2.18,4.75-3.37,7.91-3.03,3.18.35,5.54,1.96,6.81,4.86,1.38,3.14,1.29,6.4-1.04,9.02-3.35,3.78-6.91,7.38-10.58,10.86-1.73,1.65-1.7,2.67-.22,4.54,12.3,15.47,19.46,33.08,21.51,52.73.19,1.77.96,2.22,2.55,2.21,4.79-.05,9.58-.04,14.38,0,5.42.03,9.19,3.55,9.22,8.54.03,5.08-3.81,8.67-9.35,8.7-4.61.02-9.23.06-13.84-.02-1.92-.04-2.77.45-3.01,2.6-2.13,19.24-9.07,36.57-21.08,51.81-2.41,3.06-2.43,3.04.24,5.71,3.07,3.08,6.18,6.12,9.21,9.24,3.58,3.68,3.66,9.04.27,12.42-3.39,3.38-8.73,3.27-12.42-.32-3.3-3.22-6.63-6.43-9.76-9.81-1.54-1.66-2.6-1.73-4.38-.29-13.74,11.15-29.44,17.99-46.84,20.98-2.01.35-4.03.68-6.06.79-1.71.1-2.33.81-2.31,2.48.05,4.79.03,9.58,0,14.38-.03,5.41-3.54,9.24-8.48,9.29-5.07.05-8.67-3.79-8.7-9.34-.02-4.61-.07-9.23.02-13.84.04-1.94-.49-2.76-2.63-3.01-19.32-2.19-36.78-9.08-51.99-21.29-2.13-1.71-3.45-2.01-5.41.22-2.99,3.38-6.33,6.47-9.56,9.64-3.83,3.76-8.75,3.88-12.35.37-3.65-3.56-3.54-8.62.32-12.54,3.24-3.29,6.41-6.65,9.82-9.75,1.9-1.73,1.73-2.93.23-4.8-11.05-13.69-17.84-29.32-20.81-46.63-.33-1.92-.7-3.86-.76-5.8-.06-2.01-.95-2.57-2.81-2.54-4.52.08-9.05.03-13.58.02-5.85-.02-9.75-3.43-9.78-8.53-.03-5.16,3.83-8.63,9.65-8.65,4.61-.01,9.23-.05,13.84.01,1.75.02,2.46-.55,2.66-2.4,2.12-19.54,9.15-37.11,21.49-52.45,1.61-2,1.75-3.2-.25-5-3.42-3.08-6.6-6.45-9.83-9.75-3.73-3.81-3.84-8.78-.31-12.36,3.51-3.57,8.57-3.54,12.35.15,3.37,3.29,6.78,6.53,9.94,10.01,1.74,1.91,2.93,1.71,4.79.21,13.61-11,29.15-17.77,46.37-20.75,2.01-.35,4.03-.75,6.06-.81,2.04-.06,2.57-.99,2.5-2.83-.1-2.48-.02-4.97-.02-7.45ZM42.98,127.56c.62,47.44,37.59,84.84,84.94,84.94,47.48.1,85.06-37.3,85.13-84.86.07-47.45-37.35-85.06-84.93-85.07-47.68-.02-84.59,37.71-85.13,85Z"/>
  <path d="m119.48,102.01c0-8.07,0-16.14,0-24.21,0-6.08,3.34-9.99,8.54-10.02,5.32-.03,8.68,3.89,8.68,10.15,0,13.92.09,27.85-.08,41.77-.04,3.13.92,5.28,3.14,7.42,6.77,6.52,13.37,13.22,19.96,19.92,2.96,3.01,3.29,7.43,1.04,10.75-2.35,3.47-6.7,4.74-10.59,3.12-1.26-.53-2.24-1.41-3.18-2.36-8.15-8.15-16.28-16.33-24.47-24.44-2.08-2.06-3.09-4.4-3.06-7.35.08-8.25.03-16.5.02-24.74Z"/>
</svg>