<?xml version="1.0" encoding="UTF-8"?>
<svg id="_Слой_1" data-name="Слой 1" xmlns="http://www.w3.org/2000/svg" viewBox="0 0 256 256">
  <defs>
    <style>
      .cls-1 {
        fill: #fff;
      }

      .cls-2 {
        fill: #4169e1;
      }
    </style>
  </defs>
  <circle class="cls-2" cx="128" cy="128" r="128"/>
  <path class="cls-1" d="m125.51,82.45c3.48.01,6.94.23,10.4.54,4.18.38,5.87,2.19,7.15,8.01.3,2.51.28,5.02.01,7.53l-.16,4.47c-.37,2.2-.08,4.42-.17,6.63.11,3.31-.23,6.63.18,9.94.19,1.13.04,2.27.46,3.41,1.37,3.82,3.31,4.35,6.09,1.47,3.4-3.53,6.44-7.37,9.14-11.47,4.45-6.74,8.06-13.9,10.97-21.43.9-2.32,1.82-4.74,4.85-5.08,2.97-.44,5.96-.2,8.94-.18,6.89.04,13.78-.24,20.66.14,4.48.66,5.6,2.35,4.35,6.64-1.47,5.03-4.22,9.4-7.25,13.59-4.59,6.34-9.23,12.64-13.87,18.94-6.04,8.18-5.98,9.31,1.3,16.45,6.36,6.24,12.82,12.4,17.78,19.89.32.49.66.96.97,1.46,3.48,5.57,1.28,10.01-5.28,10.68-5.14.37-10.3.06-15.44.16-2.38-.1-4.76.2-7.13-.16-5.25-.13-9.63-2.19-13.22-5.99-3.71-3.92-7.37-7.88-11.17-11.71-1.91-1.92-3.93-4.25-7.05-3.28-2.93.91-2.97,3.89-3.65,6.33-.74,2.69-1.26,5.4-1.44,8.2-.22,3.5-2.11,5.28-5.89,5.93-4.04.3-8.07.28-12.11,0-16.18-1.12-29.11-8.69-39.62-20.55-10.76-12.15-18.92-26.07-26.21-40.5-3.26-6.45-6.26-13.02-9.26-19.59-2.05-4.5-.49-6.85,4.43-6.88,4.41-.02,8.82.04,13.22.07,3.36.47,6.75-.15,10.11.33,3.31.47,5.31,2.47,6.5,5.47,4.25,10.71,9.83,20.68,16.85,29.83,1.12,1.46,2.34,2.81,3.86,3.86,2.49,1.74,4.26,1.19,5.09-1.66.6-2.07,1.12-4.17,1.18-6.35.28-5.39.29-10.77,0-16.16-.03-1.16-.02-2.32-.11-3.47-.32-4.36-2.32-6.79-6.53-7.99-2.99-.85-3.32-2.18-1.13-4.42,1.98-2.02,4.53-2.63,7.2-2.9,1.15-.12,2.31-.13,3.47-.2,3.84-.3,7.68-.3,11.52,0Z"/>
</svg>