<?xml version="1.0" encoding="UTF-8"?>
<svg id="_Слой_1" data-name="Слой 1" xmlns="http://www.w3.org/2000/svg" viewBox="0 0 256 256">
  <defs>
    <style>
      .cls-1 {
        fill: #fff;
      }

      .cls-2 {
        fill: #f55;
      }

      .cls-3 {
        fill: #ffbcbc;
      }

      .cls-4 {
        fill: #ff7e7e;
      }

      .cls-5 {
        fill: red;
      }
    </style>
  </defs>
  <path class="cls-5" d="m-.15,138.68v-20.97c.4-2.53.33-5.1.54-7.64,1-12.09,4.79-23.39,9.66-34.39,6.3-14.23,15.04-26.85,25.89-37.92,8.48-8.65,18.07-15.95,28.68-21.86,13.05-7.27,26.88-12.44,41.69-14.61C114.78.04,123.34-.07,131.9.33c4.31.2,8.65-.02,12.95.43,11.59,1.22,22.67,4.48,33.37,8.97,15.21,6.38,28.63,15.55,40.28,27.2,15.66,15.66,26.62,34.13,32.79,55.45,2.7,9.33,4.09,18.77,4.25,28.49.13,8.56.11,17.1-.63,25.62-.52,5.96-1.92,11.78-3.62,17.55-4.88,16.58-12.52,31.71-23.5,45.05-20.04,24.37-45.52,39.75-76.58,45.71-3.75.72-7.6.66-11.4.94-.89.07-1.82-.27-2.67.24h-19.47c-3.03-.46-6.1-.29-9.13-.62-12.03-1.32-23.36-5-34.31-10.04-11.1-5.12-21.39-11.52-30.57-19.59-11.71-10.29-21.62-22.08-29.03-35.89-4.93-9.2-8.95-18.74-11.63-28.85-1.77-6.7-2.84-13.47-2.91-20.4,0-.64.22-1.33-.24-1.92Z"/>
  <path class="cls-1" d="m171.12,80.19c9.47,1.09,16.82,5.41,21.1,14.15,1.42,2.9,2.45,6.02,2.36,9.36.32.54.22,1.13.22,1.7,0,15.2,0,30.4,0,45.6,0,.57.1,1.17-.22,1.7-.5,11.38-8.84,20.59-19.6,22.92-1.27.27-2.58.39-3.87.58-.64.27-1.31.17-1.97.17-27.66,0-55.32,0-82.98,0-.66,0-1.33.1-1.97-.17-11.32-.1-22.2-10.53-23.41-21.17-.07-.65-.79-1.13-.41-1.86.29-1.31.13-2.64.13-3.96.01-14.43.01-28.86,0-43.28,0-.91.13-1.82-.14-2.72,1.73-11.11,7.68-18.65,18.59-22.03,1.72-.53,3.47-.8,5.24-.99.64-.27,1.31-.16,1.97-.16,27.66,0,55.32,0,82.98,0,.66,0,1.33-.1,1.97.17Z"/>
  <path class="cls-2" d="m171.12,80.19c-4.56.03-9.13.07-13.69.08-24.08.02-48.17.02-72.25.03-.33,0-.66-.07-.98-.1,1-.56,2.1-.41,3.17-.41,26.86,0,53.72,0,80.58,0,1.07,0,2.17-.15,3.17.41Z"/>
  <path class="cls-2" d="m84.2,176.2c5.56-.03,11.12-.07,16.68-.07,23.09-.02,46.17-.02,69.26-.03.33,0,.66.07.99.1-1,.57-2.1.42-3.17.42-26.86,0-53.72,0-80.58,0-1.07,0-2.17.15-3.17-.42Z"/>
  <path class="cls-3" d="m60.37,103.21c.6.51.41,1.21.41,1.86,0,15.42,0,30.84,0,46.25,0,.64.2,1.34-.41,1.86,0-16.66,0-33.31,0-49.97Z"/>
  <path class="cls-3" d="m194.59,152.7c0-16.34,0-32.67,0-49.01.74.66.45,1.55.45,2.34.02,14.78.02,29.56,0,44.34,0,.78.29,1.68-.45,2.34Z"/>
  <path class="cls-5" d="m110.77,108.08c11.43,6.63,22.86,13.27,34.66,20.11-11.8,6.84-23.23,13.48-34.66,20.11-1.06-.06-.82-.87-.82-1.48-.01-12.42-.01-24.84,0-37.27,0-.6-.24-1.42.82-1.48Z"/>
  <path class="cls-4" d="m110.77,108.08c-.92.57-.56,1.49-.56,2.27-.02,11.9-.02,23.79,0,35.69,0,.77-.35,1.7.56,2.27-1.57.65-1.04-.68-1.05-1.23-.06-3.23-.03-6.46-.03-9.69,0-9.19-.02-18.38.05-27.57,0-.56-1.01-2.2,1.03-1.73Z"/>
</svg>